ply
format ascii 1.0
comment Created by Blender 2.66 (sub 1) - www.blender.org, source file: 'ag3.blend'
element vertex 24
property float x
property float y
property float z
property float nx
property float ny
property float nz
property float s
property float t
element face 6
property list uchar uint vertex_indices
end_header
-1.000000 1.000000 -1.00000 -1.000000 0.000000 -0.000000 0.000000 0.334353
-1.000000 -1.000000 -1.00000 -1.000000 0.000000 -0.000000 0.332314 0.333333
-1.000000 -1.000000 1.000000 -1.000000 0.000000 -0.000000 0.333333 0.665647
-1.000000 1.000000 1.000000 -1.000000 0.000000 -0.000000 0.001020 0.666667
-1.000000 1.000000 1.000000 0.000000 1.000000 -0.000000 0.665647 0.333333
1.000000 1.000000 1.000000 0.000000 1.000000 -0.000000 0.333333 0.332314
1.000000 1.000000 -1.00000 0.000000 1.000000 -0.000000 0.334353 0.000000
-1.000000 1.000000 -1.00000 0.000000 1.000000 -0.000000 0.666667 0.001020
1.000000 1.000000 1.000000 1.000000 0.000000 -0.000000 1.000000 0.664606
1.000000 -1.000000 1.000000 1.000000 0.000000 -0.000000 0.667686 0.665625
1.000000 -1.000000 -1.00000 1.000000 0.000000 -0.000000 0.666667 0.333311
1.000000 1.000000 -1.00000 1.000000 0.000000 -0.000000 0.998981 0.332292
-1.000000 -1.000000 -1.00000 0.000000 -1.000000 -0.000000 0.332314 0.000000
1.000000 -1.000000 -1.00000 0.000000 -1.000000 -0.000000 0.333333 0.332314
1.000000 -1.000000 1.000000 0.000000 -1.000000 -0.000000 0.001020 0.333333
-1.000000 -1.000000 1.000000 0.000000 -1.000000 -0.000000 0.000000 0.001020
-1.000000 -1.000000 -1.00000 -0.000000 0.000000 -1.000000 0.998980 0.333333
-1.000000 1.000000 -1.00000 -0.000000 0.000000 -1.000000 0.666667 0.332314
1.000000 1.000000 -1.00000 -0.000000 0.000000 -1.000000 0.667686 0.000000
1.000000 -1.000000 -1.00000 -0.000000 0.000000 -1.000000 1.000000 0.001020
1.000000 -1.000000 1.000000 -0.000000 0.000000 1.000000 0.333333 0.334353
1.000000 1.000000 1.000000 -0.000000 0.000000 1.000000 0.665647 0.333333
-1.000000 1.000000 1.000000 -0.000000 0.000000 1.000000 0.666667 0.665647
-1.000000 -1.000000 1.000000 -0.000000 0.000000 1.000000 0.334353 0.666667
4 0 1 2 3
4 4 5 6 7
4 8 9 10 11
4 12 13 14 15
4 16 17 18 19
4 20 21 22 23
